<svg display="none" width="0" height="0" version="1.1" xmlns="http://www.w3.org/2000/svg" xmlns:xlink="http://www.w3.org/1999/xlink">
<defs>
<symbol id="icon-home2" viewBox="0 0 1024 1024">
	<title>home2</title>
	<path class="path1" d="M512 32l-512 512 96 96 96-96v416h256v-192h128v192h256v-416l96 96 96-96-512-512zM512 448c-35.346 0-64-28.654-64-64s28.654-64 64-64c35.346 0 64 28.654 64 64s-28.654 64-64 64z"></path>
</symbol>
<symbol id="icon-headphones" viewBox="0 0 1024 1024">
	<title>headphones</title>
	<path class="path1" d="M288 576h-64v448h64c17.6 0 32-14.4 32-32v-384c0-17.6-14.4-32-32-32z"></path>
	<path class="path2" d="M736 576c-17.602 0-32 14.4-32 32v384c0 17.6 14.398 32 32 32h64v-448h-64z"></path>
	<path class="path3" d="M1024 512c0-282.77-229.23-512-512-512s-512 229.23-512 512c0 61.412 10.83 120.29 30.656 174.848-19.478 33.206-30.656 71.87-30.656 113.152 0 112.846 83.448 206.188 192 221.716v-443.418c-31.914 4.566-61.664 15.842-87.754 32.378-5.392-26.718-8.246-54.364-8.246-82.676 0-229.75 186.25-416 416-416s416 186.25 416 416c0 28.314-2.83 55.968-8.22 82.696-26.1-16.546-55.854-27.848-87.78-32.418v443.44c108.548-15.532 192-108.874 192-221.714 0-41.274-11.178-79.934-30.648-113.138 19.828-54.566 30.648-113.452 30.648-174.866z"></path>
</symbol>
<symbol id="icon-qrcode" viewBox="0 0 1024 1024">
	<title>qrcode</title>
	<path class="path1" d="M320 64h-256v256h256v-256zM384 0v0 384h-384v-384h384zM128 128h128v128h-128zM960 64h-256v256h256v-256zM1024 0v0 384h-384v-384h384zM768 128h128v128h-128zM320 704h-256v256h256v-256zM384 640v0 384h-384v-384h384zM128 768h128v128h-128zM448 0h64v64h-64zM512 64h64v64h-64zM448 128h64v64h-64zM512 192h64v64h-64zM448 256h64v64h-64zM512 320h64v64h-64zM448 384h64v64h-64zM448 512h64v64h-64zM512 576h64v64h-64zM448 640h64v64h-64zM512 704h64v64h-64zM448 768h64v64h-64zM512 832h64v64h-64zM448 896h64v64h-64zM512 960h64v64h-64zM960 512h64v64h-64zM64 512h64v64h-64zM128 448h64v64h-64zM0 448h64v64h-64zM256 448h64v64h-64zM320 512h64v64h-64zM384 448h64v64h-64zM576 512h64v64h-64zM640 448h64v64h-64zM704 512h64v64h-64zM768 448h64v64h-64zM832 512h64v64h-64zM896 448h64v64h-64zM960 640h64v64h-64zM576 640h64v64h-64zM640 576h64v64h-64zM704 640h64v64h-64zM832 640h64v64h-64zM896 576h64v64h-64zM960 768h64v64h-64zM576 768h64v64h-64zM640 704h64v64h-64zM768 704h64v64h-64zM832 768h64v64h-64zM896 704h64v64h-64zM960 896h64v64h-64zM640 832h64v64h-64zM704 896h64v64h-64zM768 832h64v64h-64zM832 896h64v64h-64zM640 960h64v64h-64zM768 960h64v64h-64zM896 960h64v64h-64z"></path>
</symbol>
<symbol id="icon-tv" viewBox="0 0 1024 1024">
	<title>tv</title>
	<path class="path1" d="M981.188 288.108c-88.808-12.768-183.382-22.016-282.076-27.22l164.888-164.888-64-64-224.558 224.556c-21.006-0.368-42.156-0.556-63.442-0.556v0l-256-256-64 64 194.196 194.196c-120.922 4.242-236.338 14.524-343.386 29.912-27.532 107.726-42.81 226.752-42.81 351.892s15.278 244.166 42.804 351.89c143.642 20.652 302.34 32.11 469.196 32.11s325.55-11.458 469.188-32.11c27.534-107.724 42.812-226.75 42.812-351.89s-15.278-244.166-42.812-351.892zM863.892 874.594c-107.73 13.766-226.75 21.406-351.892 21.406s-244.166-7.64-351.892-21.406c-20.648-71.816-32.108-151.166-32.108-234.594 0-83.43 11.458-162.78 32.108-234.596 107.726-13.766 226.75-21.404 351.892-21.404 125.136 0 244.162 7.638 351.886 21.404 20.656 71.816 32.114 151.166 32.114 234.596 0 83.428-11.458 162.778-32.108 234.594z"></path>
</symbol>
</defs>
</svg>
